<svg width="41" height="41" viewBox="0 0 41 41" fill="none" xmlns="http://www.w3.org/2000/svg">
<rect x="1.22917" y="1.22917" width="38.5417" height="38.5417" rx="19.2708" fill="#F9FAFB"/>
<rect x="1.22917" y="1.22917" width="38.5417" height="38.5417" rx="19.2708" stroke="#F9FAFB" stroke-width="1.54167"/>
<path d="M22.5625 24.875H17.9375C17.9375 25.4883 18.1811 26.0765 18.6148 26.5102C19.0485 26.9439 19.6367 27.1875 20.25 27.1875C20.8633 27.1875 21.4515 26.9439 21.8852 26.5102C22.3189 26.0765 22.5625 25.4883 22.5625 24.875Z" stroke="#344054" stroke-width="0.72" stroke-linecap="round" stroke-linejoin="round"/>
<path d="M25.9388 22.0845C26.2451 22.3913 26.417 22.8072 26.4168 23.2407C26.4168 23.4553 26.3746 23.6678 26.2924 23.8661C26.2103 24.0644 26.0899 24.2446 25.9382 24.3963C25.7864 24.5481 25.6062 24.6685 25.408 24.7506C25.2097 24.8327 24.9972 24.875 24.7825 24.875H15.7175C15.5029 24.875 15.2904 24.8328 15.0921 24.7507C14.8938 24.6686 14.7136 24.5482 14.5618 24.3964C14.41 24.2447 14.2897 24.0645 14.2076 23.8662C14.1254 23.6679 14.0832 23.4553 14.0833 23.2407C14.083 22.8072 14.255 22.3913 14.5613 22.0845L15.625 21.0207V17.9375C15.625 16.7109 16.1123 15.5345 16.9797 14.6671C17.847 13.7998 19.0234 13.3125 20.25 13.3125C21.4767 13.3125 22.6531 13.7998 23.5204 14.6671C24.3878 15.5345 24.875 16.7109 24.875 17.9375V21.0207L25.9388 22.0845Z" stroke="#344054" stroke-width="0.72" stroke-linecap="round" stroke-linejoin="round"/>
</svg>
