<svg width="164" height="58" viewBox="0 0 164 58" fill="none" xmlns="http://www.w3.org/2000/svg">
<path d="M4.61338 46V11.4876H27.8688V17.5037H11.9102V25.7273H26.6723V31.7434H11.9102V39.9839H27.9362V46H4.61338ZM23.23 11.4876H32.2289L41.7333 34.6756H42.1377L51.6421 11.4876H60.6409V46H53.5632V23.5366H53.2767L44.3453 45.8315H39.5257L30.5942 23.4524H30.3078V46H23.23V11.4876ZM56.2128 46V11.4876H69.829C72.4354 11.4876 74.6598 11.9538 76.5023 12.8863C78.356 13.8075 79.7659 15.1163 80.7321 16.8128C81.7095 18.4979 82.1982 20.4808 82.1982 22.7614C82.1982 25.0533 81.7039 27.0249 80.7152 28.6764C79.7266 30.3166 78.2942 31.5749 76.418 32.4512C74.5531 33.3275 72.295 33.7656 69.6436 33.7656H60.5268V27.9012H68.464C69.8571 27.9012 71.0142 27.7102 71.9355 27.3283C72.8567 26.9463 73.542 26.3733 73.9914 25.6094C74.452 24.8454 74.6823 23.8961 74.6823 22.7614C74.6823 21.6155 74.452 20.6493 73.9914 19.8629C73.542 19.0765 72.8511 18.4811 71.9186 18.0766C70.9974 17.661 69.8346 17.4531 68.4303 17.4531H63.5096V46H56.2128ZM74.8508 30.2942L83.4284 46H75.3732L66.9811 30.2942H74.8508Z" fill="#00A7C5"/>
<path d="M92.4673 31.2053V13.3474H95.7023V20.9074H103.977V13.3474H107.221V31.2053H103.977V23.6192H95.7023V31.2053H92.4673Z" fill="#1E1F1F"/>
<path d="M113.963 31.4757C113.114 31.4757 112.35 31.3245 111.67 31.0222C110.995 30.7141 110.46 30.2607 110.065 29.662C109.676 29.0632 109.481 28.3249 109.481 27.4472C109.481 26.6915 109.62 26.0665 109.9 25.5724C110.179 25.0783 110.559 24.683 111.042 24.3865C111.524 24.0901 112.068 23.8663 112.672 23.7151C113.283 23.5582 113.913 23.4448 114.565 23.3751C115.349 23.2937 115.986 23.221 116.474 23.1571C116.962 23.0873 117.317 22.9827 117.538 22.8432C117.765 22.6978 117.878 22.474 117.878 22.1717V22.1194C117.878 21.4625 117.683 20.9539 117.294 20.5935C116.904 20.2331 116.343 20.0529 115.611 20.0529C114.838 20.0529 114.224 20.2214 113.771 20.5586C113.323 20.8958 113.021 21.294 112.864 21.7532L109.917 21.3347C110.149 20.5208 110.533 19.8407 111.068 19.2942C111.603 18.742 112.257 18.3293 113.03 18.056C113.803 17.777 114.658 17.6375 115.593 17.6375C116.239 17.6375 116.881 17.7131 117.521 17.8642C118.16 18.0154 118.744 18.2653 119.273 18.6141C119.802 18.9571 120.227 19.425 120.546 20.018C120.872 20.6109 121.035 21.3521 121.035 22.2415V31.2053H118V29.3655H117.895C117.704 29.7375 117.433 30.0863 117.085 30.4119C116.742 30.7316 116.309 30.9903 115.785 31.1879C115.268 31.3797 114.66 31.4757 113.963 31.4757ZM114.783 29.1562C115.416 29.1562 115.966 29.0312 116.431 28.7813C116.896 28.5255 117.253 28.1883 117.503 27.7698C117.759 27.3512 117.887 26.8949 117.887 26.4008V24.8225C117.788 24.9039 117.619 24.9795 117.381 25.0492C117.148 25.119 116.887 25.18 116.596 25.2324C116.306 25.2847 116.018 25.3312 115.733 25.3719C115.448 25.4126 115.201 25.4474 114.992 25.4765C114.521 25.5405 114.1 25.6451 113.727 25.7904C113.355 25.9357 113.062 26.1392 112.847 26.4008C112.632 26.6566 112.524 26.9879 112.524 27.3948C112.524 27.9762 112.736 28.415 113.161 28.7115C113.585 29.008 114.126 29.1562 114.783 29.1562Z" fill="#1E1F1F"/>
<path d="M125.2 36.2279C124.77 36.2279 124.371 36.193 124.005 36.1233C123.645 36.0593 123.357 35.9837 123.142 35.8965L123.874 33.4376C124.334 33.5713 124.743 33.6352 125.104 33.6294C125.464 33.6236 125.781 33.5103 126.054 33.2894C126.333 33.0743 126.569 32.7139 126.761 32.2081L127.031 31.4844L122.174 17.8119H125.522L128.609 27.9267H128.749L131.844 17.8119H135.201L129.839 32.8272C129.589 33.5364 129.257 34.1439 128.845 34.6496C128.432 35.1612 127.926 35.5507 127.327 35.8181C126.734 36.0913 126.025 36.2279 125.2 36.2279Z" fill="#1E1F1F"/>
<path d="M142.281 31.4669C140.973 31.4669 139.84 31.1792 138.88 30.6037C137.921 30.0282 137.177 29.2231 136.648 28.1883C136.125 27.1536 135.863 25.9445 135.863 24.5609C135.863 23.1774 136.125 21.9654 136.648 20.9248C137.177 19.8843 137.921 19.0763 138.88 18.5008C139.84 17.9253 140.973 17.6375 142.281 17.6375C143.589 17.6375 144.723 17.9253 145.682 18.5008C146.641 19.0763 147.382 19.8843 147.905 20.9248C148.434 21.9654 148.699 23.1774 148.699 24.5609C148.699 25.9445 148.434 27.1536 147.905 28.1883C147.382 29.2231 146.641 30.0282 145.682 30.6037C144.723 31.1792 143.589 31.4669 142.281 31.4669ZM142.299 28.9382C143.008 28.9382 143.601 28.7435 144.077 28.354C144.554 27.9587 144.909 27.4297 145.141 26.767C145.379 26.1043 145.499 25.3661 145.499 24.5522C145.499 23.7326 145.379 22.9914 145.141 22.3287C144.909 21.6602 144.554 21.1283 144.077 20.733C143.601 20.3377 143.008 20.1401 142.299 20.1401C141.572 20.1401 140.967 20.3377 140.485 20.733C140.008 21.1283 139.651 21.6602 139.412 22.3287C139.18 22.9914 139.064 23.7326 139.064 24.5522C139.064 25.3661 139.18 26.1043 139.412 26.767C139.651 27.4297 140.008 27.9587 140.485 28.354C140.967 28.7435 141.572 28.9382 142.299 28.9382Z" fill="#1E1F1F"/>
<path d="M153.764 27.0025L153.756 23.1919H154.261L159.075 17.8119H162.763L156.842 24.404H156.188L153.764 27.0025ZM150.887 31.2053V13.3474H154.043V31.2053H150.887ZM159.293 31.2053L154.933 25.1103L157.06 22.8868L163.068 31.2053H159.293Z" fill="#1E1F1F"/>
<path d="M92.4673 37.8117H93.9612L95.9618 42.6948H96.0408L98.0414 37.8117H99.5353V44.5507H98.3639V39.9209H98.3013L96.4389 44.5309H95.5636L93.7012 39.9111H93.6387V44.5507H92.4673V37.8117Z" fill="#1E1F1F"/>
<path d="M107.219 44.6494C106.713 44.6494 106.275 44.5441 105.906 44.3335C105.54 44.1207 105.258 43.8202 105.061 43.4319C104.863 43.0414 104.765 42.5818 104.765 42.0532C104.765 41.5333 104.863 41.077 105.061 40.6843C105.26 40.2895 105.539 39.9824 105.896 39.763C106.254 39.5414 106.674 39.4306 107.157 39.4306C107.468 39.4306 107.762 39.4811 108.039 39.582C108.317 39.6807 108.563 39.8343 108.776 40.0427C108.991 40.2511 109.16 40.5165 109.282 40.839C109.405 41.1593 109.467 41.541 109.467 41.9841V42.3493H105.324V41.5464H108.325C108.323 41.3183 108.273 41.1154 108.177 40.9377C108.08 40.7578 107.945 40.6163 107.772 40.5132C107.601 40.4101 107.401 40.3586 107.173 40.3586C106.93 40.3586 106.716 40.4178 106.532 40.5363C106.347 40.6525 106.204 40.8061 106.1 40.9969C106 41.1856 105.948 41.3929 105.946 41.6188V42.3197C105.946 42.6137 106 42.8659 106.107 43.0765C106.215 43.2849 106.365 43.4451 106.558 43.5569C106.751 43.6666 106.977 43.7215 107.236 43.7215C107.409 43.7215 107.566 43.6973 107.706 43.6491C107.847 43.5986 107.968 43.5251 108.071 43.4286C108.175 43.3321 108.252 43.2125 108.305 43.0699L109.417 43.195C109.347 43.4889 109.213 43.7456 109.016 43.9649C108.821 44.1821 108.571 44.351 108.266 44.4717C107.961 44.5901 107.612 44.6494 107.219 44.6494Z" fill="#1E1F1F"/>
<path d="M116.52 44.6395C116.123 44.6395 115.767 44.5375 115.454 44.3335C115.14 44.1295 114.892 43.8333 114.71 43.4451C114.528 43.0568 114.437 42.5851 114.437 42.0301C114.437 41.4686 114.529 40.9947 114.713 40.6086C114.9 40.2204 115.151 39.9275 115.467 39.7301C115.783 39.5305 116.135 39.4306 116.523 39.4306C116.819 39.4306 117.063 39.4811 117.253 39.582C117.444 39.6807 117.596 39.8003 117.708 39.9407C117.819 40.0789 117.906 40.2094 117.967 40.3322H118.017V37.8117H119.211V44.5507H118.04V43.7544H117.967C117.906 43.8772 117.817 44.0077 117.701 44.1459C117.585 44.2819 117.431 44.3982 117.24 44.4947C117.049 44.5912 116.809 44.6395 116.52 44.6395ZM116.852 43.6622C117.104 43.6622 117.319 43.5942 117.497 43.4582C117.675 43.32 117.81 43.1281 117.902 42.8824C117.994 42.6367 118.04 42.3504 118.04 42.0236C118.04 41.6967 117.994 41.4126 117.902 41.1713C117.812 40.93 117.678 40.7425 117.5 40.6086C117.325 40.4748 117.109 40.4079 116.852 40.4079C116.587 40.4079 116.365 40.477 116.187 40.6152C116.01 40.7534 115.876 40.9443 115.786 41.1878C115.696 41.4313 115.651 41.7099 115.651 42.0236C115.651 42.3394 115.696 42.6213 115.786 42.8692C115.878 43.1149 116.013 43.309 116.191 43.4516C116.37 43.592 116.591 43.6622 116.852 43.6622Z" fill="#1E1F1F"/>
<path d="M124.65 44.5507V39.4965H125.841V44.5507H124.65ZM125.249 38.7791C125.061 38.7791 124.898 38.7166 124.762 38.5916C124.626 38.4643 124.558 38.3119 124.558 38.1342C124.558 37.9543 124.626 37.8018 124.762 37.6768C124.898 37.5496 125.061 37.486 125.249 37.486C125.44 37.486 125.602 37.5496 125.736 37.6768C125.872 37.8018 125.94 37.9543 125.94 38.1342C125.94 38.3119 125.872 38.4643 125.736 38.5916C125.602 38.7166 125.44 38.7791 125.249 38.7791Z" fill="#1E1F1F"/>
<path d="M133.441 44.6494C132.936 44.6494 132.503 44.5386 132.141 44.317C131.781 44.0955 131.504 43.7895 131.308 43.399C131.115 43.0063 131.019 42.5544 131.019 42.0433C131.019 41.53 131.118 41.077 131.315 40.6843C131.512 40.2895 131.791 39.9824 132.151 39.763C132.513 39.5414 132.941 39.4306 133.434 39.4306C133.844 39.4306 134.207 39.5063 134.523 39.6577C134.841 39.8069 135.095 40.0185 135.283 40.2928C135.472 40.5648 135.58 40.8829 135.606 41.247H134.467C134.421 41.0035 134.312 40.8006 134.138 40.6383C133.967 40.4737 133.738 40.3915 133.451 40.3915C133.207 40.3915 132.993 40.4573 132.809 40.5889C132.625 40.7183 132.481 40.9048 132.378 41.1483C132.277 41.3918 132.227 41.6835 132.227 42.0236C132.227 42.368 132.277 42.6641 132.378 42.912C132.479 43.1577 132.62 43.3474 132.802 43.4812C132.987 43.6129 133.203 43.6787 133.451 43.6787C133.626 43.6787 133.783 43.6458 133.921 43.58C134.062 43.512 134.179 43.4143 134.273 43.2871C134.368 43.1599 134.432 43.0052 134.467 42.8231H135.606C135.577 43.1807 135.472 43.4977 135.29 43.7741C135.108 44.0483 134.86 44.2633 134.546 44.419C134.233 44.5726 133.864 44.6494 133.441 44.6494Z" fill="#1E1F1F"/>
<path d="M142.208 44.6527C141.888 44.6527 141.599 44.5956 141.343 44.4816C141.088 44.3653 140.886 44.1942 140.737 43.9682C140.59 43.7423 140.517 43.4637 140.517 43.1325C140.517 42.8473 140.569 42.6115 140.675 42.425C140.78 42.2385 140.924 42.0894 141.106 41.9775C141.288 41.8656 141.493 41.7812 141.721 41.7241C141.951 41.6649 142.189 41.6221 142.435 41.5958C142.731 41.5651 142.971 41.5377 143.156 41.5135C143.34 41.4872 143.474 41.4477 143.557 41.3951C143.643 41.3402 143.686 41.2558 143.686 41.1417V41.122C143.686 40.8741 143.612 40.6821 143.465 40.5461C143.318 40.4101 143.106 40.3421 142.83 40.3421C142.538 40.3421 142.307 40.4057 142.136 40.533C141.967 40.6602 141.853 40.8105 141.793 40.9838L140.681 40.8258C140.769 40.5187 140.914 40.262 141.116 40.0558C141.317 39.8474 141.564 39.6917 141.856 39.5886C142.148 39.4833 142.47 39.4306 142.823 39.4306C143.067 39.4306 143.309 39.4592 143.551 39.5162C143.792 39.5732 144.012 39.6676 144.212 39.7992C144.412 39.9286 144.572 40.1052 144.692 40.329C144.815 40.5527 144.877 40.8324 144.877 41.168V44.5507H143.732V43.8564H143.692C143.62 43.9968 143.518 44.1284 143.386 44.2512C143.257 44.3719 143.093 44.4695 142.896 44.5441C142.701 44.6165 142.471 44.6527 142.208 44.6527ZM142.517 43.7774C142.756 43.7774 142.964 43.7302 143.139 43.6359C143.315 43.5394 143.45 43.4121 143.544 43.2542C143.641 43.0963 143.689 42.9241 143.689 42.7376V42.142C143.652 42.1727 143.588 42.2012 143.498 42.2276C143.41 42.2539 143.311 42.2769 143.202 42.2967C143.092 42.3164 142.984 42.334 142.876 42.3493C142.769 42.3647 142.675 42.3778 142.596 42.3888C142.419 42.4129 142.26 42.4524 142.119 42.5073C141.979 42.5621 141.868 42.6389 141.787 42.7376C141.706 42.8341 141.665 42.9592 141.665 43.1127C141.665 43.3321 141.745 43.4977 141.905 43.6096C142.065 43.7215 142.269 43.7774 142.517 43.7774Z" fill="#1E1F1F"/>
<path d="M150.244 44.5507V39.4965H151.399V40.3388H151.452C151.544 40.0471 151.702 39.8222 151.926 39.6643C152.152 39.5041 152.409 39.4241 152.699 39.4241C152.765 39.4241 152.838 39.4274 152.919 39.4339C153.003 39.4383 153.072 39.446 153.127 39.457V40.5527C153.076 40.5352 152.996 40.5198 152.886 40.5066C152.779 40.4913 152.675 40.4836 152.574 40.4836C152.357 40.4836 152.161 40.5308 151.988 40.6251C151.817 40.7172 151.682 40.8456 151.583 41.0101C151.485 41.1746 151.435 41.3644 151.435 41.5793V44.5507H150.244Z" fill="#1E1F1F"/>
<path d="M160.117 44.6494C159.61 44.6494 159.173 44.5441 158.804 44.3335C158.438 44.1207 158.156 43.8202 157.959 43.4319C157.761 43.0414 157.662 42.5818 157.662 42.0532C157.662 41.5333 157.761 41.077 157.959 40.6843C158.158 40.2895 158.437 39.9824 158.794 39.763C159.152 39.5414 159.572 39.4306 160.055 39.4306C160.366 39.4306 160.66 39.4811 160.936 39.582C161.215 39.6807 161.461 39.8343 161.673 40.0427C161.888 40.2511 162.057 40.5165 162.18 40.839C162.303 41.1593 162.365 41.541 162.365 41.9841V42.3493H158.222V41.5464H161.223C161.221 41.3183 161.171 41.1154 161.075 40.9377C160.978 40.7578 160.843 40.6163 160.67 40.5132C160.499 40.4101 160.299 40.3586 160.071 40.3586C159.828 40.3586 159.614 40.4178 159.429 40.5363C159.245 40.6525 159.101 40.8061 158.998 40.9969C158.897 41.1856 158.846 41.3929 158.844 41.6188V42.3197C158.844 42.6137 158.897 42.8659 159.005 43.0765C159.112 43.2849 159.263 43.4451 159.456 43.5569C159.649 43.6666 159.875 43.7215 160.134 43.7215C160.307 43.7215 160.464 43.6973 160.604 43.6491C160.744 43.5986 160.866 43.5251 160.969 43.4286C161.072 43.3321 161.15 43.2125 161.203 43.0699L162.315 43.195C162.245 43.4889 162.111 43.7456 161.914 43.9649C161.718 44.1821 161.468 44.351 161.163 44.4717C160.859 44.5901 160.51 44.6494 160.117 44.6494Z" fill="#1E1F1F"/>
</svg>
