<svg width="10" height="14" viewBox="0 0 10 14" fill="none" xmlns="http://www.w3.org/2000/svg">
<path d="M6.99992 3.66667H2.99992M6.99992 6.33333H2.99992M6.99992 9H4.33325M0.333252 1H9.66658V13L8.97859 12.4107C8.73694 12.2036 8.42917 12.0897 8.11092 12.0897C7.79266 12.0897 7.4849 12.2036 7.24325 12.4107L6.55525 13L5.86792 12.4107C5.62622 12.2034 5.31833 12.0894 4.99992 12.0894C4.68151 12.0894 4.37361 12.2034 4.13192 12.4107L3.44458 13L2.75659 12.4107C2.51494 12.2036 2.20718 12.0897 1.88892 12.0897C1.57066 12.0897 1.2629 12.2036 1.02125 12.4107L0.333252 13V1Z" stroke="#00869E" stroke-width="0.666667" stroke-linecap="round" stroke-linejoin="round"/>
</svg>
