<svg width="107" height="106" viewBox="0 0 107 106" fill="none" xmlns="http://www.w3.org/2000/svg">
<rect x="0.5" width="106" height="106" rx="53" fill="#D6F4F9"/>
<path d="M55.9199 39.2968L69.0484 42.792M53.1094 49.7358L59.6709 51.4848M53.4367 69.4065L56.0602 70.1078C63.4852 72.0878 67.1977 73.075 70.1237 71.3948C73.0469 69.7173 74.0424 66.024 76.0307 58.643L78.8439 48.2013C80.8349 40.8175 81.8277 37.127 80.1392 34.2175C78.4507 31.308 74.7409 30.3208 67.3132 28.3435L64.6897 27.6423C57.2647 25.6623 53.5522 24.675 50.6289 26.3553C47.7029 28.0328 46.7074 31.726 44.7164 39.107L41.9059 49.5488C39.9149 56.9325 38.9194 60.623 40.6107 63.5325C42.2992 66.4393 46.0117 67.4293 53.4367 69.4065Z" stroke="#00A7C5" stroke-width="5" stroke-linecap="round" stroke-linejoin="round"/>
<path d="M53.5 77.6015L50.882 78.3165C43.4735 80.3323 39.772 81.3415 36.8515 79.6283C33.9365 77.9178 32.941 74.1558 30.9582 66.6263L28.1505 55.9783C26.165 48.4515 25.1722 44.6868 26.858 41.7223C28.3155 39.1565 31.5 39.25 35.625 39.25" stroke="#00A7C5" stroke-width="5" stroke-linecap="round" stroke-linejoin="round"/>
</svg>
