<svg width="44" height="44" viewBox="0 0 44 44" fill="none" xmlns="http://www.w3.org/2000/svg">
<rect x="1.18061" y="1.18061" width="41.6388" height="41.6388" rx="20.8194" fill="#F9FAFB"/>
<rect x="1.18061" y="1.18061" width="41.6388" height="41.6388" rx="20.8194" stroke="#F9FAFB" stroke-width="1.63878"/>
<g clip-path="url(#clip0_11240_35002)">
<path d="M24.5416 16.1667C25.3556 16.3255 26.1036 16.7236 26.69 17.31C27.2764 17.8964 27.6745 18.6444 27.8333 19.4583M24.5416 12.8333C26.2327 13.0212 27.8096 13.7785 29.0135 14.9808C30.2174 16.1832 30.9767 17.7592 31.1666 19.45M30.3333 26.1V28.6C30.3343 28.8321 30.2867 29.0618 30.1937 29.2745C30.1008 29.4871 29.9644 29.678 29.7934 29.8349C29.6224 29.9918 29.4205 30.1112 29.2006 30.1856C28.9808 30.2599 28.7478 30.2876 28.5166 30.2667C25.9523 29.988 23.4891 29.1118 21.325 27.7083C19.3115 26.4289 17.6044 24.7218 16.325 22.7083C14.9166 20.5343 14.0402 18.0592 13.7667 15.4833C13.7458 15.2529 13.7732 15.0206 13.8471 14.8014C13.9209 14.5821 14.0396 14.3806 14.1956 14.2097C14.3516 14.0388 14.5415 13.9023 14.7531 13.8088C14.9648 13.7153 15.1936 13.6669 15.425 13.6667H17.925C18.3294 13.6627 18.7215 13.8059 19.0281 14.0696C19.3348 14.3333 19.535 14.6995 19.5917 15.1C19.6972 15.9001 19.8929 16.6856 20.175 17.4417C20.2871 17.7399 20.3114 18.0641 20.2449 18.3757C20.1784 18.6874 20.024 18.9734 19.8 19.2L18.7417 20.2583C19.9279 22.3446 21.6554 24.072 23.7416 25.2583L24.8 24.2C25.0266 23.976 25.3126 23.8215 25.6242 23.7551C25.9359 23.6886 26.26 23.7129 26.5583 23.825C27.3144 24.1071 28.0999 24.3028 28.9 24.4083C29.3048 24.4654 29.6745 24.6693 29.9388 24.9813C30.203 25.2932 30.3435 25.6913 30.3333 26.1Z" stroke="#344054" stroke-width="2.12598" stroke-linecap="round" stroke-linejoin="round"/>
</g>
<defs>
<clipPath id="clip0_11240_35002">
<rect width="20" height="20" fill="white" transform="translate(12 12)"/>
</clipPath>
</defs>
</svg>
