<svg width="44" height="44" viewBox="0 0 44 44" fill="none" xmlns="http://www.w3.org/2000/svg">
<rect x="1.18061" y="1.18061" width="41.6388" height="41.6388" rx="20.8194" fill="#F9FAFB"/>
<rect x="1.18061" y="1.18061" width="41.6388" height="41.6388" rx="20.8194" stroke="#F9FAFB" stroke-width="1.63878"/>
<g clip-path="url(#clip0_11204_23072)">
<path d="M19.1583 23.2583L24.85 26.575M24.8417 17.425L19.1583 20.7417M29.5 16.1667C29.5 17.5474 28.3807 18.6667 27 18.6667C25.6193 18.6667 24.5 17.5474 24.5 16.1667C24.5 14.7859 25.6193 13.6667 27 13.6667C28.3807 13.6667 29.5 14.7859 29.5 16.1667ZM19.5 22C19.5 23.3807 18.3807 24.5 17 24.5C15.6193 24.5 14.5 23.3807 14.5 22C14.5 20.6193 15.6193 19.5 17 19.5C18.3807 19.5 19.5 20.6193 19.5 22ZM29.5 27.8333C29.5 29.214 28.3807 30.3333 27 30.3333C25.6193 30.3333 24.5 29.214 24.5 27.8333C24.5 26.4526 25.6193 25.3333 27 25.3333C28.3807 25.3333 29.5 26.4526 29.5 27.8333Z" stroke="#344054" stroke-width="2.12598" stroke-linecap="round" stroke-linejoin="round"/>
</g>
<defs>
<clipPath id="clip0_11204_23072">
<rect width="20" height="20" fill="white" transform="translate(12 12)"/>
</clipPath>
</defs>
</svg>
