<svg width="107" height="106" viewBox="0 0 107 106" fill="none" xmlns="http://www.w3.org/2000/svg">
<rect x="0.5" width="106" height="106" rx="53" fill="#D6F4F9"/>
<g clip-path="url(#clip0_11240_34933)">
<path d="M64.5 53.5H68.625V61.255L75.335 65.1325L73.2725 68.7075L64.5 63.6475V53.5ZM67.25 48C63.6033 48 60.1059 49.4487 57.5273 52.0273C54.9487 54.6059 53.5 58.1033 53.5 61.75C53.5 65.3967 54.9487 68.8941 57.5273 71.4727C60.1059 74.0513 63.6033 75.5 67.25 75.5C70.8967 75.5 74.3941 74.0513 76.9727 71.4727C79.5513 68.8941 81 65.3967 81 61.75C81 58.1033 79.5513 54.6059 76.9727 52.0273C74.3941 49.4487 70.8967 48 67.25 48ZM67.25 42.5C72.3554 42.5 77.2517 44.5281 80.8618 48.1382C84.4719 51.7483 86.5 56.6446 86.5 61.75C86.5 66.8554 84.4719 71.7517 80.8618 75.3618C77.2517 78.9719 72.3554 81 67.25 81C59.5775 81 52.95 76.49 49.8425 70H23.25V61.75C23.25 54.435 37.9075 50.75 45.25 50.75C46.9 50.75 48.935 50.9425 51.08 51.3C52.8239 48.5975 55.218 46.3758 58.043 44.8384C60.8681 43.3009 64.0337 42.4969 67.25 42.5ZM48 61.75C48 59.825 48.275 57.955 48.7975 56.25C47.6425 56.0575 46.4325 55.975 45.25 55.975C37.0825 55.975 28.475 59.99 28.475 61.75V64.775H48.2475C48.0855 63.7748 48.0028 62.7633 48 61.75ZM45.25 26C48.1674 26 50.9653 27.1589 53.0282 29.2218C55.0911 31.2847 56.25 34.0826 56.25 37C56.25 39.9174 55.0911 42.7153 53.0282 44.7782C50.9653 46.8411 48.1674 48 45.25 48C42.3326 48 39.5347 46.8411 37.4718 44.7782C35.4089 42.7153 34.25 39.9174 34.25 37C34.25 34.0826 35.4089 31.2847 37.4718 29.2218C39.5347 27.1589 42.3326 26 45.25 26ZM45.25 31.225C43.7184 31.225 42.2495 31.8334 41.1665 32.9165C40.0834 33.9995 39.475 35.4684 39.475 37C39.475 38.5316 40.0834 40.0005 41.1665 41.0835C42.2495 42.1666 43.7184 42.775 45.25 42.775C46.7816 42.775 48.2505 42.1666 49.3335 41.0835C50.4166 40.0005 51.025 38.5316 51.025 37C51.025 35.4684 50.4166 33.9995 49.3335 32.9165C48.2505 31.8334 46.7816 31.225 45.25 31.225Z" fill="#00A7C5"/>
</g>
<defs>
<clipPath id="clip0_11240_34933">
<rect width="66" height="66" fill="white" transform="translate(20.5 20)"/>
</clipPath>
</defs>
</svg>
