<svg width="13" height="14" viewBox="0 0 13 14" fill="none" xmlns="http://www.w3.org/2000/svg">
<path d="M6.5 1.3125C8.00842 1.3125 9.45506 1.91172 10.5217 2.97833C11.5883 4.04494 12.1875 5.49158 12.1875 7C12.1875 8.50842 11.5883 9.95506 10.5217 11.0217C9.45506 12.0883 8.00842 12.6875 6.5 12.6875C4.99158 12.6875 3.54494 12.0883 2.47833 11.0217C1.41172 9.95506 0.8125 8.50842 0.8125 7C0.8125 5.49158 1.41172 4.04494 2.47833 2.97833C3.54494 1.91172 4.99158 1.3125 6.5 1.3125ZM5.7915 8.12206L4.52806 6.85781C4.48277 6.81252 4.429 6.77659 4.36982 6.75208C4.31064 6.72756 4.24721 6.71495 4.18316 6.71495C4.1191 6.71495 4.05567 6.72756 3.99649 6.75208C3.93732 6.77659 3.88354 6.81252 3.83825 6.85781C3.74678 6.94929 3.69538 7.07335 3.69538 7.20272C3.69538 7.33208 3.74678 7.45615 3.83825 7.54762L5.447 9.15638C5.49216 9.2019 5.54589 9.23803 5.60509 9.26269C5.66429 9.28735 5.72778 9.30004 5.79191 9.30004C5.85603 9.30004 5.91953 9.28735 5.97872 9.26269C6.03792 9.23803 6.09165 9.2019 6.13681 9.15638L9.46806 5.82431C9.51396 5.77921 9.55048 5.72546 9.5755 5.66617C9.60052 5.60688 9.61356 5.54323 9.61386 5.47888C9.61416 5.41452 9.60171 5.35075 9.57724 5.29123C9.55277 5.23171 9.51676 5.17763 9.47128 5.1321C9.4258 5.08657 9.37176 5.05049 9.31227 5.02595C9.25278 5.00141 9.18902 4.98889 9.12467 4.98911C9.06032 4.98933 8.99665 5.0023 8.93733 5.02725C8.87801 5.0522 8.82422 5.08865 8.77906 5.1345L5.7915 8.12206Z" fill="#039855"/>
</svg>
