<svg width="21" height="18" viewBox="0 0 21 18" fill="none" xmlns="http://www.w3.org/2000/svg">
<path d="M19.995 2.25C19.995 1.65326 19.7579 1.08097 19.336 0.65901C18.914 0.237053 18.3417 0 17.745 0H2.25C1.65326 0 1.08097 0.237053 0.65901 0.65901C0.237053 1.08097 0 1.65326 0 2.25V13.755C0 14.3517 0.237053 14.924 0.65901 15.346C1.08097 15.7679 1.65326 16.005 2.25 16.005H12.008C12.044 15.578 12.202 15.158 12.486 14.799L12.72 14.504H6.499L6.5 11.75L6.507 11.693C6.51984 11.6382 6.55083 11.5893 6.59493 11.5542C6.63904 11.5192 6.69368 11.5001 6.75 11.5H13.245L13.302 11.507C13.3568 11.5198 13.4057 11.5508 13.4408 11.5949C13.4758 11.639 13.4949 11.6937 13.495 11.75V13.561C13.9002 13.1766 14.4365 12.9606 14.995 12.957V11.75L14.989 11.607C14.9531 11.1691 14.7538 10.7608 14.4307 10.463C14.1076 10.1653 13.6843 10 13.245 10H6.75L6.606 10.006C6.1683 10.0421 5.76019 10.2415 5.46268 10.5646C5.16517 10.8877 5.00002 11.3108 5 11.75L4.999 14.504H2.25C2.05109 14.504 1.86032 14.425 1.71967 14.2843C1.57902 14.1437 1.5 13.9529 1.5 13.754V2.25C1.5 2.05109 1.57902 1.86032 1.71967 1.71967C1.86032 1.57902 2.05109 1.5 2.25 1.5H17.745C17.9439 1.5 18.1347 1.57902 18.2753 1.71967C18.416 1.86032 18.495 2.05109 18.495 2.25V6.023C18.83 5.973 19.182 5.998 19.525 6.111L19.955 6.251L19.995 6.265V2.25ZM13 6C13 5.20435 12.6839 4.44129 12.1213 3.87868C11.5587 3.31607 10.7956 3 10 3C9.20435 3 8.44129 3.31607 7.87868 3.87868C7.31607 4.44129 7 5.20435 7 6C7 6.79565 7.31607 7.55871 7.87868 8.12132C8.44129 8.68393 9.20435 9 10 9C10.7956 9 11.5587 8.68393 12.1213 8.12132C12.6839 7.55871 13 6.79565 13 6ZM8.5 6C8.5 5.60218 8.65804 5.22064 8.93934 4.93934C9.22064 4.65804 9.60218 4.5 10 4.5C10.3978 4.5 10.7794 4.65804 11.0607 4.93934C11.342 5.22064 11.5 5.60218 11.5 6C11.5 6.39782 11.342 6.77936 11.0607 7.06066C10.7794 7.34196 10.3978 7.5 10 7.5C9.60218 7.5 9.22064 7.34196 8.93934 7.06066C8.65804 6.77936 8.5 6.39782 8.5 6ZM17.192 8.995L17.668 7.79C17.91 7.176 18.588 6.857 19.216 7.062L19.647 7.203C20.371 7.44 20.973 8.009 20.997 8.772C21.097 11.882 18.521 16.355 15.784 17.827C15.111 18.189 14.316 17.95 13.749 17.436L13.412 17.131C13.1764 16.9177 13.0306 16.6228 13.0042 16.306C12.9779 15.9893 13.0729 15.6743 13.27 15.425L14.07 14.415C14.36 14.048 14.837 13.885 15.29 13.995L16.582 14.308C17.6847 13.578 18.276 12.5517 18.356 11.229L17.439 10.265C17.2808 10.099 17.1735 9.89121 17.1297 9.66614C17.0859 9.44107 17.1075 9.20817 17.192 8.995Z" fill="#667085"/>
</svg>
