<svg width="106" height="106" viewBox="0 0 106 106" fill="none" xmlns="http://www.w3.org/2000/svg">
<rect width="106" height="106" rx="53" fill="#FFFAF5"/>
<path d="M53 31C65.1302 31 75 40.8698 75 53C75 65.1302 65.1302 75 53 75C40.8698 75 31 65.1302 31 53C31 40.8698 40.8698 31 53 31ZM53 25.5C37.8118 25.5 25.5 37.8118 25.5 53C25.5 68.1882 37.8118 80.5 53 80.5C68.1882 80.5 80.5 68.1882 80.5 53C80.5 37.8118 68.1882 25.5 53 25.5ZM55.75 61.25H50.25V66.75H55.75V61.25ZM50.25 55.75H55.75L57.125 39.25H48.875L50.25 55.75Z" fill="#F79009"/>
</svg>
